<?xml version="1.0"?>
<svg version="1.1" xmlns="http://www.w3.org/2000/svg" width="305px" height="59px" style=""><path fill="#" d="M52.864,33.02l-0.8-2.752s-1.504-0.512-3.616-0.512c-3.424,0-5.344,2.496-5.344,7.84c0,5.184,2.016,7.424,5.44,7.424c1.664,0,3.52-0.576,3.52-0.576l0-4.032l-2.4-0.736l0-2.624l9.216-0.16l0,2.784l-2.176,0.736l0,6.528s-3.296,2.144-8.704,2.144c-6.496,0-10.24-3.904-10.24-11.328c0-7.52,4.224-12,10.784-12c3.872,0,7.456,1.504,7.456,1.504l-0.16,5.76l-2.976,0z M70.25632,45.34l2.88,0.8l0,2.56l-10.272,0l0-2.56l2.56-0.8l0-17.984l-2.56-0.64l0-2.56l7.392-0.256l0,21.44z M85.28064,31.1c5.184,0,8.064,3.136,8.064,8.64c0,5.76-3.36,9.28-8.544,9.28c-5.216,0-8.16-2.72-8.16-8.8c0-5.76,3.424-9.12,8.64-9.12z M85.12064,34.94c-2.336,0-3.52,1.28-3.52,5.12c0,3.52,1.024,5.12,3.36,5.12c2.304,0,3.424-1.44,3.424-5.28c0-3.264-0.96-4.96-3.264-4.96z M104.04896,23.9l0,8.896c0.544-0.416,2.144-1.696,4.576-1.696c4.288,0,6.56,3.104,6.56,8.48c0,6.016-3.136,9.504-9.28,9.504c-3.52,0-6.656-0.704-6.656-0.704l0-21.024l-2.4-0.64l0-2.56z M104.04896,36.38l0,8.608s0.736,0.256,2.368,0.256c2.784,0,3.808-2.112,3.808-5.344c0-3.2-0.896-4.96-3.136-4.96c-1.92,0-3.04,1.44-3.04,1.44z M130.72128,48.7l-0.576-2.08s-2.464,2.4-5.184,2.4c-3.104,0-4.992-1.824-4.992-5.024c0-3.776,2.848-5.28,7.712-5.28l2.24,0l0-1.76c0-1.632-0.864-2.336-2.464-2.336c-1.632,0-2.816,0.48-2.816,0.48l-0.48,2.016l-2.88,0l-0.224-4.736s3.872-1.28,6.944-1.28c4.864,0,6.72,1.696,6.72,6.336l0,7.904l2.4,0.576l0,2.56z M129.92128,41.436l-1.824,0c-2.496,0-3.488,0.64-3.488,2.08c0,1.216,0.672,1.92,1.888,1.92c1.696,0,3.424-1.856,3.424-1.856l0-2.144z M148.1776,45.34l2.88,0.8l0,2.56l-10.272,0l0-2.56l2.56-0.8l0-17.984l-2.56-0.64l0-2.56l7.392-0.256l0,21.44z"/><path fill="#" d="M192.264,35.26l0,3.52l-6.464,0l0,6.08l5.728,0l0.736-2.624l2.88,0l0,6.464l-16.704,0l0-2.72l2.4-0.96l0-15.04l-2.4-0.96l0-2.72l7.36-0.16l8.96,0l0,6.176l-2.88,0l-0.8-2.336l-5.28,0l0,5.28l6.464,0z M199.28832,34.14l0-2.56l8.544-0.16l0,2.72l-1.792,0.32l2.848,8.96l2.72-8.864l-1.856-0.416l0-2.56l8.608-0.16l0,2.72l-1.984,0.416l-4.704,13.12c-1.536,4.224-3.616,8.704-8.704,8.704c-1.088,0-3.104-0.256-3.104-0.256l0.448-3.424l2.08,0c2.56,0,3.744-2.72,4.288-3.968l-5.696-14.08z M237.32064,41.116l-10.624,0c0.192,2.56,1.664,4.064,3.872,4.064c2.656,0,5.376-1.504,5.376-1.504l1.376,2.656s-3.2,2.688-7.296,2.688c-5.504,0-8.32-3.2-8.32-8.64c0-5.6,3.168-9.28,8.544-9.28c4.768,0,7.264,2.944,7.264,7.52c0,1.216-0.192,2.4-0.192,2.496z M226.76064,38.14l5.792,0c0-1.824-0.768-3.2-2.624-3.2c-1.792,0-2.912,1.312-3.168,3.2z"/></svg>
