<svg id="visual" viewBox="0 0 900 600" width="900" height="600" xmlns="http://www.w3.org/2000/svg" xmlns:xlink="http://www.w3.org/1999/xlink" version="1.1"><g stroke-width="1" stroke-linejoin="bevel"><path d="M430 284L526 226L411 208Z" fill="#008300" stroke="#008300"></path><path d="M430 284L520 313L526 226Z" fill="#00b200" stroke="#00b200"></path><path d="M520 313L573 213L526 226Z" fill="#008b00" stroke="#008b00"></path><path d="M526 226L530 119L411 208Z" fill="#006600" stroke="#006600"></path><path d="M377 62L338 201L411 208Z" fill="#009a00" stroke="#009a00"></path><path d="M411 208L338 201L430 284Z" fill="#009a00" stroke="#009a00"></path><path d="M573 213L530 119L526 226Z" fill="#006d00" stroke="#006d00"></path><path d="M294 320L377 364L430 284Z" fill="#007c00" stroke="#007c00"></path><path d="M430 284L504 411L520 313Z" fill="#00a200" stroke="#00a200"></path><path d="M606 360L623 313L520 313Z" fill="#006600" stroke="#006600"></path><path d="M520 313L623 313L573 213Z" fill="#009a00" stroke="#009a00"></path><path d="M573 213L633 79L530 119Z" fill="#008b00" stroke="#008b00"></path><path d="M377 364L504 411L430 284Z" fill="#00b200" stroke="#00b200"></path><path d="M504 411L606 360L520 313Z" fill="#006d00" stroke="#006d00"></path><path d="M338 201L294 320L430 284Z" fill="#008b00" stroke="#008b00"></path><path d="M530 119L377 62L411 208Z" fill="#009300" stroke="#009300"></path><path d="M338 201L232 192L294 320Z" fill="#00b200" stroke="#00b200"></path><path d="M377 62L273 115L338 201Z" fill="#00b200" stroke="#00b200"></path><path d="M707 181L633 79L573 213Z" fill="#007500" stroke="#007500"></path><path d="M530 119L430 0L377 62Z" fill="#008b00" stroke="#008b00"></path><path d="M504 0L430 0L530 119Z" fill="#006600" stroke="#006600"></path><path d="M377 62L301 0L273 115Z" fill="#006d00" stroke="#006d00"></path><path d="M273 115L232 192L338 201Z" fill="#008b00" stroke="#008b00"></path><path d="M615 0L504 0L530 119Z" fill="#006600" stroke="#006600"></path><path d="M715 291L707 181L623 313Z" fill="#007500" stroke="#007500"></path><path d="M623 313L707 181L573 213Z" fill="#006600" stroke="#006600"></path><path d="M232 192L222 297L294 320Z" fill="#006d00" stroke="#006d00"></path><path d="M294 320L268 418L377 364Z" fill="#00b200" stroke="#00b200"></path><path d="M718 428L715 291L623 313Z" fill="#007500" stroke="#007500"></path><path d="M707 181L715 137L633 79Z" fill="#008300" stroke="#008300"></path><path d="M784 116L715 137L707 181Z" fill="#009300" stroke="#009300"></path><path d="M227 416L268 418L294 320Z" fill="#00aa00" stroke="#00aa00"></path><path d="M377 364L371 505L504 411Z" fill="#009a00" stroke="#009a00"></path><path d="M664 0L615 0L633 79Z" fill="#008b00" stroke="#008b00"></path><path d="M633 79L615 0L530 119Z" fill="#006d00" stroke="#006d00"></path><path d="M324 484L371 505L377 364Z" fill="#006d00" stroke="#006d00"></path><path d="M504 411L585 529L606 360Z" fill="#006d00" stroke="#006d00"></path><path d="M430 0L301 0L377 62Z" fill="#008b00" stroke="#008b00"></path><path d="M273 115L193 132L232 192Z" fill="#00b200" stroke="#00b200"></path><path d="M268 418L324 484L377 364Z" fill="#00aa00" stroke="#00aa00"></path><path d="M132 76L193 132L171 0Z" fill="#00aa00" stroke="#00aa00"></path><path d="M232 192L75 306L222 297Z" fill="#006d00" stroke="#006d00"></path><path d="M75 306L227 416L222 297Z" fill="#00b200" stroke="#00b200"></path><path d="M222 297L227 416L294 320Z" fill="#007500" stroke="#007500"></path><path d="M268 418L218 521L324 484Z" fill="#009300" stroke="#009300"></path><path d="M371 505L517 535L504 411Z" fill="#00a200" stroke="#00a200"></path><path d="M606 360L718 428L623 313Z" fill="#00a200" stroke="#00a200"></path><path d="M715 137L664 0L633 79Z" fill="#009300" stroke="#009300"></path><path d="M800 307L776 235L715 291Z" fill="#008300" stroke="#008300"></path><path d="M715 291L776 235L707 181Z" fill="#007500" stroke="#007500"></path><path d="M715 137L784 116L664 0Z" fill="#009300" stroke="#009300"></path><path d="M517 535L585 529L504 411Z" fill="#007c00" stroke="#007c00"></path><path d="M707 469L718 428L606 360Z" fill="#007500" stroke="#007500"></path><path d="M585 529L707 469L606 360Z" fill="#006600" stroke="#006600"></path><path d="M789 416L800 307L715 291Z" fill="#007c00" stroke="#007c00"></path><path d="M776 235L784 116L707 181Z" fill="#00aa00" stroke="#00aa00"></path><path d="M789 416L715 291L718 428Z" fill="#006d00" stroke="#006d00"></path><path d="M776 235L900 238L784 116Z" fill="#009300" stroke="#009300"></path><path d="M517 535L561 600L585 529Z" fill="#00a200" stroke="#00a200"></path><path d="M585 529L661 600L707 469Z" fill="#009300" stroke="#009300"></path><path d="M375 600L510 600L517 535Z" fill="#006d00" stroke="#006d00"></path><path d="M375 600L517 535L371 505Z" fill="#00a200" stroke="#00a200"></path><path d="M171 0L193 132L273 115Z" fill="#00b200" stroke="#00b200"></path><path d="M72 163L75 306L232 192Z" fill="#006600" stroke="#006600"></path><path d="M786 489L718 428L707 469Z" fill="#007500" stroke="#007500"></path><path d="M786 489L789 416L718 428Z" fill="#009300" stroke="#009300"></path><path d="M266 600L375 600L324 484Z" fill="#006600" stroke="#006600"></path><path d="M324 484L375 600L371 505Z" fill="#006d00" stroke="#006d00"></path><path d="M301 0L171 0L273 115Z" fill="#009a00" stroke="#009a00"></path><path d="M510 600L561 600L517 535Z" fill="#008300" stroke="#008300"></path><path d="M227 416L218 521L268 418Z" fill="#009300" stroke="#009300"></path><path d="M115 494L218 521L227 416Z" fill="#00aa00" stroke="#00aa00"></path><path d="M72 163L232 192L193 132Z" fill="#006600" stroke="#006600"></path><path d="M0 69L72 163L132 76Z" fill="#009300" stroke="#009300"></path><path d="M132 76L72 163L193 132Z" fill="#00b200" stroke="#00b200"></path><path d="M766 600L786 489L707 469Z" fill="#009300" stroke="#009300"></path><path d="M900 294L900 238L800 307Z" fill="#009a00" stroke="#009a00"></path><path d="M561 600L661 600L585 529Z" fill="#006600" stroke="#006600"></path><path d="M230 600L266 600L218 521Z" fill="#006600" stroke="#006600"></path><path d="M218 521L266 600L324 484Z" fill="#006d00" stroke="#006d00"></path><path d="M900 65L830 0L784 116Z" fill="#007c00" stroke="#007c00"></path><path d="M784 116L830 0L664 0Z" fill="#008b00" stroke="#008b00"></path><path d="M900 238L776 235L800 307Z" fill="#00b200" stroke="#00b200"></path><path d="M900 294L800 307L900 375Z" fill="#009a00" stroke="#009a00"></path><path d="M115 494L230 600L218 521Z" fill="#009300" stroke="#009300"></path><path d="M61 411L115 494L227 416Z" fill="#008300" stroke="#008300"></path><path d="M171 0L98 0L132 76Z" fill="#008300" stroke="#008300"></path><path d="M900 375L800 307L789 416Z" fill="#00a200" stroke="#00a200"></path><path d="M0 414L61 411L75 306Z" fill="#009a00" stroke="#009a00"></path><path d="M75 306L61 411L227 416Z" fill="#00b200" stroke="#00b200"></path><path d="M900 470L900 375L789 416Z" fill="#008300" stroke="#008300"></path><path d="M0 69L0 218L72 163Z" fill="#007500" stroke="#007500"></path><path d="M72 163L0 218L75 306Z" fill="#00aa00" stroke="#00aa00"></path><path d="M900 238L900 65L784 116Z" fill="#009a00" stroke="#009a00"></path><path d="M0 218L0 269L75 306Z" fill="#008300" stroke="#008300"></path><path d="M661 600L766 600L707 469Z" fill="#008300" stroke="#008300"></path><path d="M786 489L900 470L789 416Z" fill="#00a200" stroke="#00a200"></path><path d="M900 65L900 0L830 0Z" fill="#007500" stroke="#007500"></path><path d="M900 600L900 470L786 489Z" fill="#007500" stroke="#007500"></path><path d="M98 0L0 69L132 76Z" fill="#008b00" stroke="#008b00"></path><path d="M0 269L0 414L75 306Z" fill="#009a00" stroke="#009a00"></path><path d="M61 411L0 495L115 494Z" fill="#009a00" stroke="#009a00"></path><path d="M115 494L65 600L230 600Z" fill="#006600" stroke="#006600"></path><path d="M98 0L0 0L0 69Z" fill="#009300" stroke="#009300"></path><path d="M0 414L0 495L61 411Z" fill="#00a200" stroke="#00a200"></path><path d="M0 495L65 600L115 494Z" fill="#00aa00" stroke="#00aa00"></path><path d="M766 600L900 600L786 489Z" fill="#007500" stroke="#007500"></path><path d="M0 495L0 600L65 600Z" fill="#007c00" stroke="#007c00"></path></g></svg>